<mxfile host="app.diagrams.net" agent="Mozilla/5.0 (Windows NT 10.0; Win64; x64) AppleWebKit/537.36 (KHTML, like Gecko) Chrome/129.0.0.0 Safari/537.36" version="24.7.17">
  <diagram name="PÃ¡gina-1" id="AGyJXgi2M5yQq4FS2mf4">
    <mxGraphModel dx="3000" dy="1591" grid="1" gridSize="10" guides="1" tooltips="1" connect="1" arrows="1" fold="1" page="1" pageScale="1" pageWidth="827" pageHeight="1169" math="0" shadow="0">
      <root>
        <mxCell id="0" />
        <mxCell id="1" parent="0" />
        <mxCell id="UVbcIdzbmBgMqJv0p62J-1" style="edgeStyle=orthogonalEdgeStyle;rounded=0;orthogonalLoop=1;jettySize=auto;html=1;entryX=0;entryY=0.5;entryDx=0;entryDy=0;endArrow=none;endFill=0;curved=1;" edge="1" parent="1" source="UVbcIdzbmBgMqJv0p62J-6" target="UVbcIdzbmBgMqJv0p62J-7">
          <mxGeometry relative="1" as="geometry">
            <Array as="points">
              <mxPoint x="190" y="165" />
            </Array>
          </mxGeometry>
        </mxCell>
        <mxCell id="UVbcIdzbmBgMqJv0p62J-2" style="edgeStyle=orthogonalEdgeStyle;rounded=0;orthogonalLoop=1;jettySize=auto;html=1;entryX=0;entryY=0.5;entryDx=0;entryDy=0;endArrow=none;endFill=0;curved=1;" edge="1" parent="1" source="UVbcIdzbmBgMqJv0p62J-6" target="UVbcIdzbmBgMqJv0p62J-10">
          <mxGeometry relative="1" as="geometry" />
        </mxCell>
        <mxCell id="UVbcIdzbmBgMqJv0p62J-3" style="edgeStyle=orthogonalEdgeStyle;rounded=0;orthogonalLoop=1;jettySize=auto;html=1;entryX=0;entryY=0.5;entryDx=0;entryDy=0;endArrow=none;endFill=0;curved=1;" edge="1" parent="1" source="UVbcIdzbmBgMqJv0p62J-6" target="UVbcIdzbmBgMqJv0p62J-11">
          <mxGeometry relative="1" as="geometry">
            <Array as="points">
              <mxPoint x="350" y="400" />
              <mxPoint x="350" y="505" />
            </Array>
          </mxGeometry>
        </mxCell>
        <mxCell id="UVbcIdzbmBgMqJv0p62J-4" style="edgeStyle=orthogonalEdgeStyle;rounded=0;orthogonalLoop=1;jettySize=auto;html=1;entryX=0;entryY=0.5;entryDx=0;entryDy=0;endArrow=none;endFill=0;curved=1;" edge="1" parent="1" source="UVbcIdzbmBgMqJv0p62J-6" target="UVbcIdzbmBgMqJv0p62J-13">
          <mxGeometry relative="1" as="geometry" />
        </mxCell>
        <mxCell id="UVbcIdzbmBgMqJv0p62J-5" style="edgeStyle=orthogonalEdgeStyle;rounded=0;orthogonalLoop=1;jettySize=auto;html=1;entryX=0;entryY=0.5;entryDx=0;entryDy=0;endArrow=none;endFill=0;curved=1;" edge="1" parent="1" source="UVbcIdzbmBgMqJv0p62J-6" target="UVbcIdzbmBgMqJv0p62J-14">
          <mxGeometry relative="1" as="geometry">
            <Array as="points">
              <mxPoint x="310" y="400" />
              <mxPoint x="310" y="945" />
            </Array>
          </mxGeometry>
        </mxCell>
        <mxCell id="UVbcIdzbmBgMqJv0p62J-6" value="Professor" style="shape=umlActor;verticalLabelPosition=bottom;verticalAlign=top;html=1;outlineConnect=0;" vertex="1" parent="1">
          <mxGeometry x="170" y="370" width="30" height="60" as="geometry" />
        </mxCell>
        <mxCell id="UVbcIdzbmBgMqJv0p62J-7" value="Autenticar o sistemas" style="ellipse;whiteSpace=wrap;html=1;" vertex="1" parent="1">
          <mxGeometry x="670" y="110" width="140" height="90" as="geometry" />
        </mxCell>
        <mxCell id="UVbcIdzbmBgMqJv0p62J-8" value="Sistema" style="shape=umlFrame;whiteSpace=wrap;html=1;pointerEvents=0;" vertex="1" parent="1">
          <mxGeometry x="260" y="70" width="1030" height="1100" as="geometry" />
        </mxCell>
        <mxCell id="UVbcIdzbmBgMqJv0p62J-9" value="sair do sistema" style="ellipse;whiteSpace=wrap;html=1;" vertex="1" parent="1">
          <mxGeometry x="450" y="240" width="140" height="90" as="geometry" />
        </mxCell>
        <mxCell id="UVbcIdzbmBgMqJv0p62J-10" value="registrar atividades" style="ellipse;whiteSpace=wrap;html=1;" vertex="1" parent="1">
          <mxGeometry x="450" y="355" width="140" height="90" as="geometry" />
        </mxCell>
        <mxCell id="UVbcIdzbmBgMqJv0p62J-11" value="excluir turmas" style="ellipse;whiteSpace=wrap;html=1;" vertex="1" parent="1">
          <mxGeometry x="450" y="460" width="140" height="90" as="geometry" />
        </mxCell>
        <mxCell id="UVbcIdzbmBgMqJv0p62J-12" value="visualizar turmas" style="ellipse;whiteSpace=wrap;html=1;" vertex="1" parent="1">
          <mxGeometry x="450" y="650" width="140" height="90" as="geometry" />
        </mxCell>
        <mxCell id="UVbcIdzbmBgMqJv0p62J-13" value="registrar turmas" style="ellipse;whiteSpace=wrap;html=1;" vertex="1" parent="1">
          <mxGeometry x="450" y="770" width="140" height="90" as="geometry" />
        </mxCell>
        <mxCell id="UVbcIdzbmBgMqJv0p62J-14" value="visualizar atividades" style="ellipse;whiteSpace=wrap;html=1;" vertex="1" parent="1">
          <mxGeometry x="450" y="900" width="140" height="90" as="geometry" />
        </mxCell>
        <mxCell id="UVbcIdzbmBgMqJv0p62J-15" style="edgeStyle=orthogonalEdgeStyle;rounded=0;orthogonalLoop=1;jettySize=auto;html=1;endArrow=none;endFill=0;curved=1;" edge="1" parent="1" source="UVbcIdzbmBgMqJv0p62J-6" target="UVbcIdzbmBgMqJv0p62J-12">
          <mxGeometry relative="1" as="geometry">
            <Array as="points">
              <mxPoint x="340" y="400" />
              <mxPoint x="340" y="695" />
            </Array>
          </mxGeometry>
        </mxCell>
        <mxCell id="UVbcIdzbmBgMqJv0p62J-16" value="&amp;lt;&amp;lt;include&amp;gt;&amp;gt;" style="endArrow=open;endSize=12;dashed=1;html=1;rounded=0;exitX=1;exitY=0.5;exitDx=0;exitDy=0;curved=1;edgeStyle=orthogonalEdgeStyle;" edge="1" parent="1" source="UVbcIdzbmBgMqJv0p62J-9" target="UVbcIdzbmBgMqJv0p62J-7">
          <mxGeometry x="-0.4896" y="5" width="160" relative="1" as="geometry">
            <mxPoint x="580" y="400" as="sourcePoint" />
            <mxPoint x="740" y="400" as="targetPoint" />
            <Array as="points">
              <mxPoint x="690" y="285" />
            </Array>
            <mxPoint as="offset" />
          </mxGeometry>
        </mxCell>
        <mxCell id="UVbcIdzbmBgMqJv0p62J-17" value="&amp;lt;&amp;lt;include&amp;gt;&amp;gt;" style="endArrow=open;endSize=12;dashed=1;html=1;rounded=0;exitX=1;exitY=0.5;exitDx=0;exitDy=0;curved=1;edgeStyle=orthogonalEdgeStyle;entryX=0.436;entryY=0.972;entryDx=0;entryDy=0;entryPerimeter=0;" edge="1" parent="1" source="UVbcIdzbmBgMqJv0p62J-10" target="UVbcIdzbmBgMqJv0p62J-7">
          <mxGeometry x="-0.51" y="30" width="160" relative="1" as="geometry">
            <mxPoint x="560" y="411.70000000000005" as="sourcePoint" />
            <mxPoint x="716.02" y="200" as="targetPoint" />
            <mxPoint as="offset" />
          </mxGeometry>
        </mxCell>
        <mxCell id="UVbcIdzbmBgMqJv0p62J-18" value="&amp;lt;&amp;lt;include&amp;gt;&amp;gt;" style="endArrow=open;endSize=12;dashed=1;html=1;rounded=0;exitX=1;exitY=0.5;exitDx=0;exitDy=0;entryX=1;entryY=1;entryDx=0;entryDy=0;curved=1;edgeStyle=orthogonalEdgeStyle;" edge="1" parent="1" target="UVbcIdzbmBgMqJv0p62J-7">
          <mxGeometry x="0.2124" y="19" width="160" relative="1" as="geometry">
            <mxPoint x="580" y="949.8600000000002" as="sourcePoint" />
            <mxPoint x="759.5400000000002" y="200" as="targetPoint" />
            <mxPoint as="offset" />
          </mxGeometry>
        </mxCell>
        <mxCell id="UVbcIdzbmBgMqJv0p62J-19" value="&amp;lt;&amp;lt;include&amp;gt;&amp;gt;" style="endArrow=open;endSize=12;dashed=1;html=1;rounded=0;exitX=1;exitY=0.5;exitDx=0;exitDy=0;entryX=0.902;entryY=0.787;entryDx=0;entryDy=0;entryPerimeter=0;curved=1;edgeStyle=orthogonalEdgeStyle;" edge="1" parent="1" source="UVbcIdzbmBgMqJv0p62J-12" target="UVbcIdzbmBgMqJv0p62J-7">
          <mxGeometry x="0.1304" width="160" relative="1" as="geometry">
            <mxPoint x="600" y="895" as="sourcePoint" />
            <mxPoint x="770" y="208" as="targetPoint" />
            <Array as="points">
              <mxPoint x="590" y="690" />
              <mxPoint x="850" y="690" />
              <mxPoint x="850" y="181" />
            </Array>
            <mxPoint as="offset" />
          </mxGeometry>
        </mxCell>
        <mxCell id="UVbcIdzbmBgMqJv0p62J-20" value="&amp;lt;&amp;lt;include&amp;gt;&amp;gt;" style="endArrow=open;endSize=12;dashed=1;html=1;rounded=0;exitX=1;exitY=0.5;exitDx=0;exitDy=0;entryX=1;entryY=0.5;entryDx=0;entryDy=0;curved=1;edgeStyle=orthogonalEdgeStyle;" edge="1" parent="1" source="UVbcIdzbmBgMqJv0p62J-13" target="UVbcIdzbmBgMqJv0p62J-7">
          <mxGeometry x="0.2023" width="160" relative="1" as="geometry">
            <mxPoint x="700" y="964.77" as="sourcePoint" />
            <mxPoint x="880" y="274.77" as="targetPoint" />
            <Array as="points">
              <mxPoint x="960" y="755" />
              <mxPoint x="960" y="155" />
            </Array>
            <mxPoint as="offset" />
          </mxGeometry>
        </mxCell>
        <mxCell id="UVbcIdzbmBgMqJv0p62J-21" value="&amp;lt;&amp;lt;include&amp;gt;&amp;gt;" style="endArrow=open;endSize=12;dashed=1;html=1;rounded=0;exitX=0.5;exitY=1;exitDx=0;exitDy=0;" edge="1" parent="1" source="UVbcIdzbmBgMqJv0p62J-11" target="UVbcIdzbmBgMqJv0p62J-12">
          <mxGeometry width="160" relative="1" as="geometry">
            <mxPoint x="540" y="560" as="sourcePoint" />
            <mxPoint x="700" y="560" as="targetPoint" />
          </mxGeometry>
        </mxCell>
        <mxCell id="UVbcIdzbmBgMqJv0p62J-22" style="edgeStyle=orthogonalEdgeStyle;rounded=0;orthogonalLoop=1;jettySize=auto;html=1;entryX=0;entryY=0.5;entryDx=0;entryDy=0;endArrow=none;endFill=0;curved=1;" edge="1" parent="1" target="UVbcIdzbmBgMqJv0p62J-9">
          <mxGeometry relative="1" as="geometry">
            <mxPoint x="200" y="400" as="sourcePoint" />
            <mxPoint x="450" y="270" as="targetPoint" />
          </mxGeometry>
        </mxCell>
        <mxCell id="UVbcIdzbmBgMqJv0p62J-23" value="&amp;lt;&amp;lt;include&amp;gt;&amp;gt;" style="endArrow=open;endSize=12;dashed=1;html=1;rounded=0;exitX=1;exitY=0.5;exitDx=0;exitDy=0;curved=1;edgeStyle=orthogonalEdgeStyle;" edge="1" parent="1" source="UVbcIdzbmBgMqJv0p62J-11">
          <mxGeometry x="-0.5964" y="35" width="160" relative="1" as="geometry">
            <mxPoint x="630" y="505" as="sourcePoint" />
            <mxPoint x="770" y="190" as="targetPoint" />
            <mxPoint as="offset" />
          </mxGeometry>
        </mxCell>
        <mxCell id="UVbcIdzbmBgMqJv0p62J-24" value="Professor" style="shape=table;startSize=30;container=1;collapsible=1;childLayout=tableLayout;fixedRows=1;rowLines=0;fontStyle=1;align=center;resizeLast=1;html=1;" vertex="1" parent="1">
          <mxGeometry x="2240" y="220" width="180" height="150" as="geometry" />
        </mxCell>
        <mxCell id="UVbcIdzbmBgMqJv0p62J-25" value="" style="shape=tableRow;horizontal=0;startSize=0;swimlaneHead=0;swimlaneBody=0;fillColor=none;collapsible=0;dropTarget=0;points=[[0,0.5],[1,0.5]];portConstraint=eastwest;top=0;left=0;right=0;bottom=1;" vertex="1" parent="UVbcIdzbmBgMqJv0p62J-24">
          <mxGeometry y="30" width="180" height="30" as="geometry" />
        </mxCell>
        <mxCell id="UVbcIdzbmBgMqJv0p62J-26" value="PK" style="shape=partialRectangle;connectable=0;fillColor=none;top=0;left=0;bottom=0;right=0;fontStyle=1;overflow=hidden;whiteSpace=wrap;html=1;" vertex="1" parent="UVbcIdzbmBgMqJv0p62J-25">
          <mxGeometry width="30" height="30" as="geometry">
            <mxRectangle width="30" height="30" as="alternateBounds" />
          </mxGeometry>
        </mxCell>
        <mxCell id="UVbcIdzbmBgMqJv0p62J-27" value="ProfessorId: INT" style="shape=partialRectangle;connectable=0;fillColor=none;top=0;left=0;bottom=0;right=0;align=left;spacingLeft=6;fontStyle=5;overflow=hidden;whiteSpace=wrap;html=1;" vertex="1" parent="UVbcIdzbmBgMqJv0p62J-25">
          <mxGeometry x="30" width="150" height="30" as="geometry">
            <mxRectangle width="150" height="30" as="alternateBounds" />
          </mxGeometry>
        </mxCell>
        <mxCell id="UVbcIdzbmBgMqJv0p62J-28" value="" style="shape=tableRow;horizontal=0;startSize=0;swimlaneHead=0;swimlaneBody=0;fillColor=none;collapsible=0;dropTarget=0;points=[[0,0.5],[1,0.5]];portConstraint=eastwest;top=0;left=0;right=0;bottom=0;" vertex="1" parent="UVbcIdzbmBgMqJv0p62J-24">
          <mxGeometry y="60" width="180" height="30" as="geometry" />
        </mxCell>
        <mxCell id="UVbcIdzbmBgMqJv0p62J-29" value="" style="shape=partialRectangle;connectable=0;fillColor=none;top=0;left=0;bottom=0;right=0;editable=1;overflow=hidden;whiteSpace=wrap;html=1;" vertex="1" parent="UVbcIdzbmBgMqJv0p62J-28">
          <mxGeometry width="30" height="30" as="geometry">
            <mxRectangle width="30" height="30" as="alternateBounds" />
          </mxGeometry>
        </mxCell>
        <mxCell id="UVbcIdzbmBgMqJv0p62J-30" value="nome: VARCHAR(255)" style="shape=partialRectangle;connectable=0;fillColor=none;top=0;left=0;bottom=0;right=0;align=left;spacingLeft=6;overflow=hidden;whiteSpace=wrap;html=1;" vertex="1" parent="UVbcIdzbmBgMqJv0p62J-28">
          <mxGeometry x="30" width="150" height="30" as="geometry">
            <mxRectangle width="150" height="30" as="alternateBounds" />
          </mxGeometry>
        </mxCell>
        <mxCell id="UVbcIdzbmBgMqJv0p62J-31" value="" style="shape=tableRow;horizontal=0;startSize=0;swimlaneHead=0;swimlaneBody=0;fillColor=none;collapsible=0;dropTarget=0;points=[[0,0.5],[1,0.5]];portConstraint=eastwest;top=0;left=0;right=0;bottom=0;" vertex="1" parent="UVbcIdzbmBgMqJv0p62J-24">
          <mxGeometry y="90" width="180" height="30" as="geometry" />
        </mxCell>
        <mxCell id="UVbcIdzbmBgMqJv0p62J-32" value="" style="shape=partialRectangle;connectable=0;fillColor=none;top=0;left=0;bottom=0;right=0;editable=1;overflow=hidden;whiteSpace=wrap;html=1;" vertex="1" parent="UVbcIdzbmBgMqJv0p62J-31">
          <mxGeometry width="30" height="30" as="geometry">
            <mxRectangle width="30" height="30" as="alternateBounds" />
          </mxGeometry>
        </mxCell>
        <mxCell id="UVbcIdzbmBgMqJv0p62J-33" value="nome: VARCHAR(255)" style="shape=partialRectangle;connectable=0;fillColor=none;top=0;left=0;bottom=0;right=0;align=left;spacingLeft=6;overflow=hidden;whiteSpace=wrap;html=1;" vertex="1" parent="UVbcIdzbmBgMqJv0p62J-31">
          <mxGeometry x="30" width="150" height="30" as="geometry">
            <mxRectangle width="150" height="30" as="alternateBounds" />
          </mxGeometry>
        </mxCell>
        <mxCell id="UVbcIdzbmBgMqJv0p62J-34" value="" style="shape=tableRow;horizontal=0;startSize=0;swimlaneHead=0;swimlaneBody=0;fillColor=none;collapsible=0;dropTarget=0;points=[[0,0.5],[1,0.5]];portConstraint=eastwest;top=0;left=0;right=0;bottom=0;" vertex="1" parent="UVbcIdzbmBgMqJv0p62J-24">
          <mxGeometry y="120" width="180" height="30" as="geometry" />
        </mxCell>
        <mxCell id="UVbcIdzbmBgMqJv0p62J-35" value="" style="shape=partialRectangle;connectable=0;fillColor=none;top=0;left=0;bottom=0;right=0;editable=1;overflow=hidden;whiteSpace=wrap;html=1;" vertex="1" parent="UVbcIdzbmBgMqJv0p62J-34">
          <mxGeometry width="30" height="30" as="geometry">
            <mxRectangle width="30" height="30" as="alternateBounds" />
          </mxGeometry>
        </mxCell>
        <mxCell id="UVbcIdzbmBgMqJv0p62J-36" value="senha: VARCHAR(255)" style="shape=partialRectangle;connectable=0;fillColor=none;top=0;left=0;bottom=0;right=0;align=left;spacingLeft=6;overflow=hidden;whiteSpace=wrap;html=1;" vertex="1" parent="UVbcIdzbmBgMqJv0p62J-34">
          <mxGeometry x="30" width="150" height="30" as="geometry">
            <mxRectangle width="150" height="30" as="alternateBounds" />
          </mxGeometry>
        </mxCell>
        <mxCell id="UVbcIdzbmBgMqJv0p62J-37" value="" style="edgeStyle=entityRelationEdgeStyle;fontSize=12;html=1;endArrow=ERoneToMany;rounded=0;exitX=0;exitY=0.5;exitDx=0;exitDy=0;entryX=1;entryY=0.5;entryDx=0;entryDy=0;" edge="1" parent="1" source="UVbcIdzbmBgMqJv0p62J-25" target="UVbcIdzbmBgMqJv0p62J-43">
          <mxGeometry width="100" height="100" relative="1" as="geometry">
            <mxPoint x="2240" y="440" as="sourcePoint" />
            <mxPoint x="2130" y="520" as="targetPoint" />
          </mxGeometry>
        </mxCell>
        <mxCell id="UVbcIdzbmBgMqJv0p62J-38" value="" style="edgeStyle=entityRelationEdgeStyle;fontSize=12;html=1;endArrow=ERoneToMany;rounded=0;exitX=0;exitY=0.5;exitDx=0;exitDy=0;entryX=1;entryY=0.5;entryDx=0;entryDy=0;" edge="1" parent="1" source="UVbcIdzbmBgMqJv0p62J-40" target="UVbcIdzbmBgMqJv0p62J-53">
          <mxGeometry width="100" height="100" relative="1" as="geometry">
            <mxPoint x="1925" y="385" as="sourcePoint" />
            <mxPoint x="1855" y="415" as="targetPoint" />
          </mxGeometry>
        </mxCell>
        <mxCell id="UVbcIdzbmBgMqJv0p62J-39" value="turma" style="shape=table;startSize=30;container=1;collapsible=1;childLayout=tableLayout;fixedRows=1;rowLines=0;fontStyle=1;align=center;resizeLast=1;html=1;whiteSpace=wrap;" vertex="1" parent="1">
          <mxGeometry x="1900" y="250" width="230" height="120" as="geometry" />
        </mxCell>
        <mxCell id="UVbcIdzbmBgMqJv0p62J-40" value="" style="shape=tableRow;horizontal=0;startSize=0;swimlaneHead=0;swimlaneBody=0;fillColor=none;collapsible=0;dropTarget=0;points=[[0,0.5],[1,0.5]];portConstraint=eastwest;top=0;left=0;right=0;bottom=0;html=1;" vertex="1" parent="UVbcIdzbmBgMqJv0p62J-39">
          <mxGeometry y="30" width="230" height="30" as="geometry" />
        </mxCell>
        <mxCell id="UVbcIdzbmBgMqJv0p62J-41" value="PK" style="shape=partialRectangle;connectable=0;fillColor=none;top=0;left=0;bottom=0;right=0;fontStyle=1;overflow=hidden;html=1;whiteSpace=wrap;" vertex="1" parent="UVbcIdzbmBgMqJv0p62J-40">
          <mxGeometry width="60" height="30" as="geometry">
            <mxRectangle width="60" height="30" as="alternateBounds" />
          </mxGeometry>
        </mxCell>
        <mxCell id="UVbcIdzbmBgMqJv0p62J-42" value="turmaId: INT" style="shape=partialRectangle;connectable=0;fillColor=none;top=0;left=0;bottom=0;right=0;align=left;spacingLeft=6;fontStyle=5;overflow=hidden;html=1;whiteSpace=wrap;" vertex="1" parent="UVbcIdzbmBgMqJv0p62J-40">
          <mxGeometry x="60" width="170" height="30" as="geometry">
            <mxRectangle width="170" height="30" as="alternateBounds" />
          </mxGeometry>
        </mxCell>
        <mxCell id="UVbcIdzbmBgMqJv0p62J-43" value="" style="shape=tableRow;horizontal=0;startSize=0;swimlaneHead=0;swimlaneBody=0;fillColor=none;collapsible=0;dropTarget=0;points=[[0,0.5],[1,0.5]];portConstraint=eastwest;top=0;left=0;right=0;bottom=1;html=1;" vertex="1" parent="UVbcIdzbmBgMqJv0p62J-39">
          <mxGeometry y="60" width="230" height="30" as="geometry" />
        </mxCell>
        <mxCell id="UVbcIdzbmBgMqJv0p62J-44" value="FK" style="shape=partialRectangle;connectable=0;fillColor=none;top=0;left=0;bottom=0;right=0;fontStyle=1;overflow=hidden;html=1;whiteSpace=wrap;" vertex="1" parent="UVbcIdzbmBgMqJv0p62J-43">
          <mxGeometry width="60" height="30" as="geometry">
            <mxRectangle width="60" height="30" as="alternateBounds" />
          </mxGeometry>
        </mxCell>
        <mxCell id="UVbcIdzbmBgMqJv0p62J-45" value="professor: INT" style="shape=partialRectangle;connectable=0;fillColor=none;top=0;left=0;bottom=0;right=0;align=left;spacingLeft=6;fontStyle=5;overflow=hidden;html=1;whiteSpace=wrap;" vertex="1" parent="UVbcIdzbmBgMqJv0p62J-43">
          <mxGeometry x="60" width="170" height="30" as="geometry">
            <mxRectangle width="170" height="30" as="alternateBounds" />
          </mxGeometry>
        </mxCell>
        <mxCell id="UVbcIdzbmBgMqJv0p62J-46" value="" style="shape=tableRow;horizontal=0;startSize=0;swimlaneHead=0;swimlaneBody=0;fillColor=none;collapsible=0;dropTarget=0;points=[[0,0.5],[1,0.5]];portConstraint=eastwest;top=0;left=0;right=0;bottom=0;html=1;" vertex="1" parent="UVbcIdzbmBgMqJv0p62J-39">
          <mxGeometry y="90" width="230" height="30" as="geometry" />
        </mxCell>
        <mxCell id="UVbcIdzbmBgMqJv0p62J-47" value="" style="shape=partialRectangle;connectable=0;fillColor=none;top=0;left=0;bottom=0;right=0;editable=1;overflow=hidden;html=1;whiteSpace=wrap;" vertex="1" parent="UVbcIdzbmBgMqJv0p62J-46">
          <mxGeometry width="60" height="30" as="geometry">
            <mxRectangle width="60" height="30" as="alternateBounds" />
          </mxGeometry>
        </mxCell>
        <mxCell id="UVbcIdzbmBgMqJv0p62J-48" value="nomr: VARCHAR(255)" style="shape=partialRectangle;connectable=0;fillColor=none;top=0;left=0;bottom=0;right=0;align=left;spacingLeft=6;overflow=hidden;html=1;whiteSpace=wrap;" vertex="1" parent="UVbcIdzbmBgMqJv0p62J-46">
          <mxGeometry x="60" width="170" height="30" as="geometry">
            <mxRectangle width="170" height="30" as="alternateBounds" />
          </mxGeometry>
        </mxCell>
        <mxCell id="UVbcIdzbmBgMqJv0p62J-49" value="atividade" style="shape=table;startSize=30;container=1;collapsible=1;childLayout=tableLayout;fixedRows=1;rowLines=0;fontStyle=1;align=center;resizeLast=1;html=1;whiteSpace=wrap;" vertex="1" parent="1">
          <mxGeometry x="1570" y="250" width="230" height="120" as="geometry" />
        </mxCell>
        <mxCell id="UVbcIdzbmBgMqJv0p62J-50" value="" style="shape=tableRow;horizontal=0;startSize=0;swimlaneHead=0;swimlaneBody=0;fillColor=none;collapsible=0;dropTarget=0;points=[[0,0.5],[1,0.5]];portConstraint=eastwest;top=0;left=0;right=0;bottom=0;html=1;" vertex="1" parent="UVbcIdzbmBgMqJv0p62J-49">
          <mxGeometry y="30" width="230" height="30" as="geometry" />
        </mxCell>
        <mxCell id="UVbcIdzbmBgMqJv0p62J-51" value="PK" style="shape=partialRectangle;connectable=0;fillColor=none;top=0;left=0;bottom=0;right=0;fontStyle=1;overflow=hidden;html=1;whiteSpace=wrap;" vertex="1" parent="UVbcIdzbmBgMqJv0p62J-50">
          <mxGeometry width="60" height="30" as="geometry">
            <mxRectangle width="60" height="30" as="alternateBounds" />
          </mxGeometry>
        </mxCell>
        <mxCell id="UVbcIdzbmBgMqJv0p62J-52" value="atividade: INT" style="shape=partialRectangle;connectable=0;fillColor=none;top=0;left=0;bottom=0;right=0;align=left;spacingLeft=6;fontStyle=5;overflow=hidden;html=1;whiteSpace=wrap;" vertex="1" parent="UVbcIdzbmBgMqJv0p62J-50">
          <mxGeometry x="60" width="170" height="30" as="geometry">
            <mxRectangle width="170" height="30" as="alternateBounds" />
          </mxGeometry>
        </mxCell>
        <mxCell id="UVbcIdzbmBgMqJv0p62J-53" value="" style="shape=tableRow;horizontal=0;startSize=0;swimlaneHead=0;swimlaneBody=0;fillColor=none;collapsible=0;dropTarget=0;points=[[0,0.5],[1,0.5]];portConstraint=eastwest;top=0;left=0;right=0;bottom=1;html=1;" vertex="1" parent="UVbcIdzbmBgMqJv0p62J-49">
          <mxGeometry y="60" width="230" height="30" as="geometry" />
        </mxCell>
        <mxCell id="UVbcIdzbmBgMqJv0p62J-54" value="FK" style="shape=partialRectangle;connectable=0;fillColor=none;top=0;left=0;bottom=0;right=0;fontStyle=1;overflow=hidden;html=1;whiteSpace=wrap;" vertex="1" parent="UVbcIdzbmBgMqJv0p62J-53">
          <mxGeometry width="60" height="30" as="geometry">
            <mxRectangle width="60" height="30" as="alternateBounds" />
          </mxGeometry>
        </mxCell>
        <mxCell id="UVbcIdzbmBgMqJv0p62J-55" value="turmaId: INT" style="shape=partialRectangle;connectable=0;fillColor=none;top=0;left=0;bottom=0;right=0;align=left;spacingLeft=6;fontStyle=5;overflow=hidden;html=1;whiteSpace=wrap;" vertex="1" parent="UVbcIdzbmBgMqJv0p62J-53">
          <mxGeometry x="60" width="170" height="30" as="geometry">
            <mxRectangle width="170" height="30" as="alternateBounds" />
          </mxGeometry>
        </mxCell>
        <mxCell id="UVbcIdzbmBgMqJv0p62J-56" value="" style="shape=tableRow;horizontal=0;startSize=0;swimlaneHead=0;swimlaneBody=0;fillColor=none;collapsible=0;dropTarget=0;points=[[0,0.5],[1,0.5]];portConstraint=eastwest;top=0;left=0;right=0;bottom=0;html=1;" vertex="1" parent="UVbcIdzbmBgMqJv0p62J-49">
          <mxGeometry y="90" width="230" height="30" as="geometry" />
        </mxCell>
        <mxCell id="UVbcIdzbmBgMqJv0p62J-57" value="" style="shape=partialRectangle;connectable=0;fillColor=none;top=0;left=0;bottom=0;right=0;editable=1;overflow=hidden;html=1;whiteSpace=wrap;" vertex="1" parent="UVbcIdzbmBgMqJv0p62J-56">
          <mxGeometry width="60" height="30" as="geometry">
            <mxRectangle width="60" height="30" as="alternateBounds" />
          </mxGeometry>
        </mxCell>
        <mxCell id="UVbcIdzbmBgMqJv0p62J-58" value="descicao: VARCHAR(255)" style="shape=partialRectangle;connectable=0;fillColor=none;top=0;left=0;bottom=0;right=0;align=left;spacingLeft=6;overflow=hidden;html=1;whiteSpace=wrap;" vertex="1" parent="UVbcIdzbmBgMqJv0p62J-56">
          <mxGeometry x="60" width="170" height="30" as="geometry">
            <mxRectangle width="170" height="30" as="alternateBounds" />
          </mxGeometry>
        </mxCell>
      </root>
    </mxGraphModel>
  </diagram>
</mxfile>
